<svg width="58" height="46" viewBox="0 0 58 46" fill="none" xmlns="http://www.w3.org/2000/svg">
<path fill-rule="evenodd" clip-rule="evenodd" d="M6.20984 40.9157C6.20984 40.9827 6.14019 41.0148 5.99822 41.0148H3.72125C3.6141 41.0148 3.55785 40.9827 3.55785 40.9157C3.55785 40.8568 3.7159 40.8273 4.03199 40.8273C4.22487 40.8273 4.3347 40.8032 4.36416 40.7577C4.39363 40.7121 4.40702 40.5568 4.40702 40.2889V36.769C4.40702 36.0109 4.3722 35.5421 4.30791 35.3599C4.16593 34.9769 3.85251 34.7867 3.37033 34.7867C2.9712 34.7867 2.64439 34.9661 2.39526 35.3224C2.31222 35.4376 2.26936 35.6974 2.26936 36.0966V40.2648C2.26936 40.4898 2.27471 40.6184 2.28275 40.6505C2.29079 40.7336 2.32561 40.7818 2.38187 40.7952C2.4408 40.8086 2.62028 40.8166 2.9203 40.8246C3.01941 40.8246 3.07031 40.8595 3.07031 40.9237C3.07031 40.9827 3.02745 41.0121 2.94441 41.0121H1.83004C1.13891 41.0041 0.753167 41.0041 0.678161 41.0121H0.552259C0.46118 41.0121 0.415641 40.988 0.415641 40.9371C0.415641 40.8782 0.46118 40.8514 0.552259 40.8514H0.739773L0.927288 40.838C1.12016 40.8461 1.21927 40.7871 1.22731 40.6612V34.05C1.22731 32.7133 1.20588 31.6659 1.1657 31.5561C1.1148 31.473 0.911215 31.4275 0.552259 31.4168C0.35135 31.4168 0.252235 31.3873 0.252235 31.323C0.252235 31.2694 0.273666 31.24 0.313847 31.2292C0.356708 31.2212 0.496004 31.2105 0.739773 31.2025C1.1657 31.1944 1.57287 31.0953 1.96665 30.9024C1.9988 30.8864 2.05773 30.8649 2.14077 30.8408C2.19971 30.9399 2.22917 31.2614 2.22917 31.8052V35.1965C2.59617 34.6634 3.0971 34.3956 3.72929 34.3956C4.39631 34.3956 4.87313 34.5777 5.1544 34.9447C5.29638 35.1295 5.3821 35.3867 5.41692 35.7189C5.43299 35.8367 5.44103 36.1153 5.44103 36.5573V40.696C5.44907 40.7791 5.66605 40.822 6.09197 40.822C6.16698 40.838 6.20448 40.8675 6.20448 40.9104L6.20984 40.9157Z" fill="black"/>
<path fill-rule="evenodd" clip-rule="evenodd" d="M9.56638 37.1386C9.53424 36.1555 9.18064 35.6626 8.50826 35.6626C7.83589 35.6626 7.43139 36.1555 7.26799 37.1386H9.56638ZM10.6352 39.646C10.6352 39.729 10.5709 39.8737 10.445 40.0826C10.3191 40.2916 10.1879 40.463 10.0593 40.5916C9.70568 40.9532 9.23689 41.1327 8.64488 41.1327C7.90822 41.1327 7.28942 40.8675 6.79385 40.3344C6.29827 39.8013 6.04914 39.1424 6.04914 38.3548C6.04914 37.5672 6.28488 36.852 6.75634 36.3029C7.22781 35.7537 7.81446 35.4805 8.52166 35.4805C9.10295 35.4805 9.59049 35.6519 9.98427 35.9894C10.3781 36.3296 10.587 36.7663 10.6111 37.2994C10.3486 37.3395 10.0003 37.3556 9.56638 37.3476H8.70649C8.64756 37.3476 8.15734 37.361 7.23049 37.3851C7.1903 37.6556 7.16887 37.9128 7.16887 38.1566C7.16887 38.9816 7.32692 39.6165 7.64302 40.0612C7.95911 40.5059 8.40379 40.7282 8.97705 40.7282C9.30386 40.7282 9.56638 40.6532 9.76461 40.5059C9.96016 40.3585 10.1745 40.0746 10.4048 39.6594C10.437 39.5924 10.4825 39.5602 10.5415 39.5602C10.6057 39.5602 10.6406 39.5897 10.6406 39.646H10.6352Z" fill="black"/>
<path fill-rule="evenodd" clip-rule="evenodd" d="M13.5738 39.129V38.2316C12.9684 38.3709 12.5345 38.553 12.2719 38.7781C12.0094 39.0031 11.8782 39.3058 11.8782 39.6808C11.8782 39.9433 11.9532 40.1576 12.1032 40.3264C12.2532 40.4952 12.4407 40.5782 12.6657 40.5782C13.014 40.5782 13.2926 40.38 13.5015 39.9889C13.5497 39.8978 13.5738 39.6112 13.5738 39.129ZM15.7356 40.4309C15.7356 40.5702 15.5909 40.7148 15.3016 40.8675C15.0123 41.0202 14.7337 41.0952 14.4632 41.0952C13.9006 41.0952 13.606 40.8032 13.5819 40.2219C13.2711 40.8273 12.7916 41.13 12.138 41.13C11.7871 41.13 11.4978 41.0256 11.2701 40.8166C11.0424 40.6077 10.9272 40.3398 10.9272 40.0103C10.9272 39.3379 11.329 38.8048 12.1326 38.4137C12.4086 38.2825 12.8881 38.1512 13.5685 38.02V37.9583C13.5685 37.2378 13.531 37.0074 13.4586 36.7797C13.3274 36.3618 13.0327 36.1529 12.5746 36.1529C12.288 36.1529 12.0469 36.2305 11.8567 36.3859C11.6639 36.5413 11.5674 36.7395 11.5674 36.9752C11.5674 37.0395 11.6183 37.0744 11.7201 37.0744C11.8219 37.0744 11.9157 37.1226 11.996 37.2217C12.0791 37.3208 12.1192 37.4306 12.1192 37.5539C12.1192 37.9155 11.9398 38.095 11.5781 38.095C11.3906 38.095 11.2353 38.0307 11.112 37.9048C10.9888 37.7789 10.9272 37.6155 10.9272 37.4199C10.9272 37.0342 11.0799 36.702 11.3826 36.4234C11.7174 36.1207 12.1862 35.968 12.7836 35.968C13.6863 35.968 14.2382 36.2145 14.4418 36.7047C14.5168 36.8922 14.5516 37.0208 14.5516 37.578V39.6299C14.5516 40.0076 14.5543 40.2273 14.565 40.2942C14.6052 40.5889 14.7257 40.7362 14.9213 40.7362C15.1516 40.7362 15.3391 40.6559 15.4865 40.4898C15.5695 40.3987 15.6311 40.3559 15.6713 40.3559C15.7115 40.3559 15.7329 40.38 15.7329 40.4282L15.7356 40.4309Z" fill="black"/>
<path fill-rule="evenodd" clip-rule="evenodd" d="M19.4861 36.0911C19.4861 36.2787 19.4298 36.4367 19.3146 36.5573C19.1995 36.6805 19.0521 36.7421 18.8726 36.7421C18.7253 36.7421 18.6021 36.6992 18.503 36.6135C18.4039 36.5278 18.3556 36.4206 18.3556 36.2894C18.3556 36.1742 18.3931 36.0751 18.4655 35.9947C18.5405 35.9117 18.5753 35.8554 18.5753 35.8233C18.5753 35.7 18.4842 35.6384 18.3047 35.6384C18.0744 35.6384 17.8788 35.7804 17.7154 36.067C17.5279 36.4019 17.4315 37.2671 17.4315 38.1726V40.5942C17.4315 40.6933 17.4663 40.7522 17.5359 40.7763C17.6056 40.8004 17.8172 40.8165 18.1681 40.8246C18.2592 40.8406 18.3047 40.8728 18.3047 40.9237C18.3047 40.9799 18.2512 41.0094 18.144 41.0094H15.7599C15.6286 41.0094 15.5644 40.9853 15.5644 40.9371C15.5644 40.8888 15.6179 40.8621 15.7251 40.8621H15.8965C16.1751 40.8621 16.3385 40.8299 16.3894 40.7629C16.4055 40.7308 16.4135 40.5781 16.4135 40.3049V36.6617C16.4135 36.209 16.3466 35.9465 16.2099 35.8768C16.076 35.8072 15.859 35.767 15.5644 35.759C15.4652 35.759 15.417 35.7295 15.417 35.6733C15.417 35.617 15.4572 35.5875 15.5402 35.5875H15.626C15.7492 35.5875 15.8724 35.5929 15.9956 35.6063C16.1189 35.6197 16.1724 35.625 16.1564 35.625C16.4591 35.625 16.7966 35.5393 17.1636 35.3679L17.3243 35.2929L17.4234 35.2554C17.4556 35.4509 17.4716 35.6492 17.4716 35.8447V36.0911C17.7342 35.534 18.1012 35.2554 18.578 35.2554C18.8405 35.2554 19.0575 35.3357 19.2289 35.4938C19.4004 35.6545 19.4861 35.8527 19.4861 36.0911Z" fill="black"/>
<path fill-rule="evenodd" clip-rule="evenodd" d="M22.7301 40.2595C22.7301 40.3345 22.6283 40.4657 22.422 40.6532C22.0684 40.972 21.6505 41.1327 21.1683 41.1327C20.7183 41.1327 20.3781 41.0176 20.1477 40.7899C20.0165 40.6586 19.9522 40.2755 19.9522 39.638V34.5563C19.9441 34.476 19.8986 34.4304 19.8156 34.4224H19.3495C19.17 34.4224 19.0789 34.3929 19.0789 34.3367C19.0789 34.2804 19.1244 34.2456 19.2128 34.2376C19.8477 34.1786 20.3433 33.8652 20.7022 33.292C20.7505 33.2169 20.8121 33.1794 20.8844 33.1794C20.9406 33.1794 20.9701 33.2089 20.9701 33.2652V33.5223C20.9701 33.8679 20.9862 34.0876 21.0183 34.1867C21.0907 34.2027 21.2139 34.2108 21.388 34.2108C21.838 34.2108 22.1381 34.1893 22.2854 34.1492C22.3175 34.1411 22.347 34.1358 22.3711 34.1358C22.4381 34.1358 22.4702 34.1706 22.4702 34.2429C22.4702 34.3608 22.1381 34.4197 21.4737 34.4197H20.9701V38.1218C20.9701 39.2683 20.9996 39.9889 21.0558 40.2782C21.1121 40.5702 21.3023 40.7149 21.6211 40.7149C21.8916 40.7149 22.1943 40.5622 22.5318 40.2595C22.564 40.2193 22.6015 40.1978 22.6417 40.1978C22.6979 40.1978 22.7274 40.2193 22.7274 40.2595H22.7301Z" fill="black"/>
<path fill-rule="evenodd" clip-rule="evenodd" d="M26.9329 31.7864C26.9329 31.9579 26.882 32.0999 26.7802 32.2097C26.6784 32.3195 26.5445 32.3758 26.381 32.3758C26.2176 32.3758 26.0944 32.3275 25.9873 32.2284C25.8801 32.1293 25.8265 32.0061 25.8265 31.8588C25.8265 31.7355 25.8801 31.5936 25.9873 31.4275C26.0114 31.3873 26.0248 31.3498 26.0248 31.3177C26.0248 31.1301 25.8908 31.0337 25.623 31.0337C25.1676 31.0337 24.8675 31.3284 24.7202 31.9177C24.6479 32.2284 24.6104 32.7749 24.6104 33.5518V34.1545H25.4113C25.5721 34.1545 25.6551 34.1893 25.6551 34.2589C25.6551 34.3286 25.5506 34.3634 25.339 34.3634H24.6104V44.1195C24.6104 44.2347 24.7229 44.291 24.9506 44.291C25.2988 44.2829 25.489 44.299 25.5212 44.3392C25.5292 44.3472 25.5319 44.3633 25.5319 44.3874C25.5319 44.4437 25.4837 44.4731 25.3845 44.4731C25.3363 44.4731 25.2935 44.4705 25.2613 44.4597L24.2541 44.4731H22.9147C22.7674 44.4731 22.6924 44.4437 22.6924 44.3874C22.6924 44.3231 22.7513 44.2883 22.8692 44.2883C23.2897 44.2883 23.5228 44.2642 23.5657 44.216C23.5817 44.1999 23.5898 40.7041 23.5898 40.6719L23.5764 43.9829V34.3741C23.2737 34.3741 23.0969 34.3715 23.0486 34.3607C23.0004 34.3527 22.9736 34.3206 22.9736 34.2616C22.9736 34.1866 23.0486 34.1518 23.196 34.1518H23.5898C23.6219 33.1124 23.7612 32.3624 24.0077 31.9016C24.3854 31.1971 24.9506 30.8435 25.7033 30.8435C26.065 30.8435 26.3596 30.9292 26.59 31.1007C26.8204 31.2721 26.9329 31.4971 26.9329 31.7757V31.7864Z" fill="black"/>
<path fill-rule="evenodd" clip-rule="evenodd" d="M31.3825 40.5676C31.3825 40.6238 31.2914 40.6587 31.112 40.6667C30.4717 40.7069 29.9119 40.8462 29.427 41.0846C29.3949 41.1007 29.3654 41.1087 29.3413 41.1087C29.2931 41.1087 29.2663 41.0766 29.2663 41.0096V40.3211C28.8913 40.8462 28.3689 41.1087 27.6938 41.1087C27.0911 41.1087 26.6625 40.9346 26.4 40.5837C26.2955 40.4363 26.2312 40.3024 26.2098 40.1818C26.1911 40.0586 26.1803 39.7291 26.1803 39.1934V36.3967C26.1803 36.1128 26.1643 35.944 26.1321 35.8958C26.1 35.8476 25.9875 35.8181 25.8 35.8101H25.6392C25.4169 35.8261 25.3071 35.794 25.3071 35.711C25.3071 35.6547 25.3767 35.6252 25.516 35.6252C25.6633 35.6252 25.8776 35.636 26.1562 35.6574C26.2955 35.6681 26.3786 35.6735 26.4027 35.6735C26.6893 35.6735 26.9572 35.6574 27.201 35.6252V39.038C27.201 39.6648 27.2411 40.0827 27.3242 40.2863C27.4554 40.6051 27.7206 40.7631 28.1225 40.7631C28.5564 40.7631 28.8752 40.5837 29.0815 40.2247C29.2288 39.9649 29.3011 39.547 29.3011 38.9764V37.0798C29.3011 36.8039 29.2904 36.595 29.2636 36.4557V36.0512C29.2556 35.9279 29.2288 35.8583 29.1833 35.8369C29.1377 35.8154 29.0466 35.8047 28.9073 35.8047C28.5645 35.8128 28.3903 35.7753 28.3903 35.6949C28.3903 35.6467 28.4761 35.6226 28.6475 35.6226H30.3191V39.0514C30.3191 39.6407 30.3324 40.0158 30.3566 40.1711C30.3807 40.3265 30.4423 40.4176 30.5441 40.4417C30.6459 40.4658 30.8736 40.4792 31.2298 40.4792C31.3263 40.4792 31.3745 40.5087 31.3745 40.5649L31.3825 40.5676Z" fill="black"/>
<path fill-rule="evenodd" clip-rule="evenodd" d="M33.8041 40.8997C33.8041 40.9747 33.7505 41.0095 33.6433 41.0095H33.496C33.4799 41.0095 33.263 41.0014 32.8451 40.9854H32.4647C32.3977 40.9854 32.0709 40.9907 31.4816 41.0041C31.4334 41.0068 31.3825 41.0095 31.3342 41.0095C31.211 41.0175 31.1494 40.9827 31.1494 40.905C31.1494 40.8514 31.1949 40.8246 31.2833 40.8246H31.6021C31.8298 40.8246 31.945 40.7764 31.945 40.6773C31.953 40.6291 31.9584 40.3076 31.9584 39.7183V32.0302C31.9584 31.7597 31.9504 31.6123 31.9343 31.5882C31.9102 31.5212 31.8432 31.4891 31.7387 31.4891H31.2967C31.1815 31.4891 31.1253 31.4543 31.1253 31.3846C31.1253 31.323 31.2271 31.2882 31.4334 31.2802C31.8271 31.256 32.1914 31.165 32.5263 31.0096L32.7835 30.8864L32.8826 30.8489C32.9469 31.0873 32.9763 31.4462 32.9683 31.9311V40.2567C32.9683 40.5032 32.9737 40.6479 32.9817 40.6934C32.9897 40.7389 33.0192 40.7684 33.0674 40.7845C33.0754 40.7925 33.2281 40.8005 33.5228 40.8086C33.7103 40.8086 33.8041 40.838 33.8041 40.8943V40.8997Z" fill="black"/>
<path fill-rule="evenodd" clip-rule="evenodd" d="M39.6304 40.9184C39.6304 40.98 39.5688 41.0095 39.4456 41.0095H37.182C37.0749 41.0095 37.0213 40.98 37.0213 40.9237C37.0213 40.8836 37.0427 40.8594 37.0883 40.8514C37.1338 40.8434 37.2919 40.8353 37.5624 40.8273C37.7178 40.8193 37.8089 40.7978 37.833 40.7603C37.8571 40.7228 37.8705 40.5916 37.8705 40.3612V38.0065C37.8705 37.1145 37.8383 36.5841 37.7714 36.4127C37.6321 36.0457 37.3535 35.8608 36.9356 35.8608C36.5177 35.8608 36.1802 36.0403 35.9016 36.3993C35.8185 36.5064 35.7784 36.6538 35.7784 36.8413V40.6666C35.7784 40.7657 35.8668 40.8166 36.0409 40.8246L36.4159 40.838C36.4989 40.838 36.5391 40.8675 36.5391 40.9237C36.5391 40.98 36.4909 41.0095 36.3918 41.0095H34.155C34.0318 41.0095 33.9702 40.9853 33.9702 40.9345C33.9702 40.8836 34.0425 40.8514 34.1925 40.838H34.5006C34.6238 40.838 34.6988 40.8086 34.7229 40.7523L34.7604 40.5675V37.894C34.7604 36.9618 34.7524 36.4475 34.7363 36.3484C34.7202 36.2493 34.6184 36.201 34.4283 36.201H34.072C33.9086 36.201 33.8255 36.1716 33.8255 36.11C33.8255 36.0323 33.9112 35.9921 34.0827 35.9921C34.3291 35.9841 34.5943 35.9385 34.881 35.8582C35.1676 35.7751 35.3685 35.6814 35.4837 35.5742C35.556 35.5099 35.615 35.4751 35.6551 35.4751C35.7114 35.4751 35.7409 35.5528 35.7409 35.7082V36.2975C36.1668 35.7483 36.7159 35.4751 37.3883 35.4751C37.9776 35.4751 38.4036 35.6921 38.6661 36.126C38.8134 36.3725 38.8884 36.8386 38.8884 37.527V40.329C38.8884 40.5916 38.8991 40.7335 38.9259 40.7603C38.9741 40.8086 39.0947 40.8353 39.2822 40.8353H39.5045C39.5876 40.8353 39.6278 40.8621 39.6278 40.9157L39.6304 40.9184Z" fill="black"/>
<path fill-rule="evenodd" clip-rule="evenodd" d="M43.1155 36.8199C43.0806 35.7591 42.7003 35.2287 41.9743 35.2287C41.2484 35.2287 40.8117 35.7591 40.6349 36.8199H43.1155ZM44.27 39.5282C44.27 39.6166 44.2004 39.7746 44.0638 39.9997C43.9271 40.2247 43.7878 40.4095 43.6459 40.5488C43.2655 40.9372 42.7565 41.1328 42.119 41.1328C41.3234 41.1328 40.6563 40.8461 40.1233 40.2702C39.5875 39.6943 39.3196 38.9844 39.3196 38.1352C39.3196 37.286 39.5741 36.5119 40.0831 35.9199C40.5921 35.3279 41.2269 35.0305 41.9877 35.0305C42.6145 35.0305 43.1423 35.2154 43.5655 35.5823C43.9914 35.9493 44.2164 36.4208 44.2432 36.9941C43.9593 37.0396 43.5843 37.0557 43.1155 37.0476H42.1859C42.1243 37.0476 41.5939 37.061 40.5947 37.0878C40.5519 37.3798 40.5278 37.6557 40.5278 37.9209C40.5278 38.8103 40.6992 39.496 41.0394 39.9755C41.3796 40.455 41.8591 40.6961 42.4779 40.6961C42.8315 40.6961 43.1155 40.6158 43.3271 40.4577C43.5387 40.2997 43.7691 39.9943 44.0182 39.5416C44.053 39.4719 44.1013 39.4344 44.1629 39.4344C44.2325 39.4344 44.27 39.4666 44.27 39.5282Z" fill="black"/>
<path fill-rule="evenodd" clip-rule="evenodd" d="M48.8348 39.0675C48.8348 39.6434 48.6259 40.131 48.208 40.5301C47.7901 40.9319 47.2919 41.1328 46.7132 41.1328C46.3784 41.1328 45.9712 41.0149 45.4917 40.7765C45.3631 40.7069 45.2506 40.6721 45.1542 40.6721C45.0149 40.6721 44.9131 40.7658 44.8461 40.9533C44.8059 41.0712 44.7524 41.1301 44.6854 41.1301C44.6184 41.1301 44.5809 41.09 44.5809 41.0123V39.0246C44.5809 38.9148 44.6158 38.8612 44.6854 38.8612C44.7631 38.8612 44.8086 38.9175 44.8193 39.0246C44.8783 39.4827 45.0069 39.8416 45.2051 40.0988C45.6015 40.6158 46.1293 40.8757 46.7909 40.8757C47.1472 40.8757 47.4338 40.7712 47.6508 40.5622C47.8678 40.3533 47.9776 40.0774 47.9776 39.7291C47.9776 39.3434 47.8544 39.0353 47.608 38.8076C47.4687 38.6791 47.3428 38.588 47.2302 38.5317C47.1177 38.4781 46.7829 38.3469 46.2284 38.1379C45.1301 37.7227 44.5836 37.0986 44.5836 36.2655C44.5836 35.711 44.7711 35.2449 45.1435 34.8672C45.5158 34.4894 45.9766 34.3019 46.5257 34.3019C46.7213 34.3019 47.0159 34.3609 47.407 34.4787C47.5062 34.5082 47.5946 34.5243 47.6722 34.5243C47.8785 34.5243 48.0044 34.4252 48.0553 34.2269C48.0848 34.1278 48.1276 34.0796 48.1866 34.0796C48.2562 34.0796 48.291 34.1198 48.291 34.1975V34.91C48.2803 35.1484 48.3044 35.5288 48.366 36.0512V36.0806C48.366 36.161 48.3259 36.1985 48.2482 36.1985C48.1892 36.1985 48.1142 36.0485 48.0258 35.7485C47.916 35.3895 47.7258 35.1002 47.4553 34.8805C47.1847 34.6609 46.8686 34.5511 46.515 34.5511C46.1775 34.5511 45.9016 34.6555 45.6846 34.8618C45.4676 35.0707 45.3578 35.3333 45.3578 35.6494C45.3578 36.1449 45.6899 36.5226 46.3516 36.7798C47.3803 37.187 48.0312 37.5245 48.3098 37.7897C48.6661 38.1379 48.8429 38.5585 48.8429 39.0541L48.8348 39.0675Z" fill="black"/>
<path fill-rule="evenodd" clip-rule="evenodd" d="M53.9887 38.9709C53.9619 39.5549 53.7315 40.0532 53.3002 40.4684C52.8395 40.9104 52.2903 41.1327 51.6501 41.1327C51.2804 41.1327 50.8331 41.0014 50.3 40.7416C50.158 40.6666 50.0348 40.6264 49.9277 40.6264C49.775 40.6264 49.6625 40.7309 49.5875 40.9371C49.5446 41.0684 49.483 41.1327 49.408 41.1327C49.333 41.1327 49.2955 41.0898 49.2955 41.0014V38.8075C49.2955 38.687 49.333 38.628 49.4107 38.628C49.4991 38.628 49.5473 38.6897 49.558 38.8102C49.6223 39.3165 49.7643 39.7103 49.9839 39.9969C50.4206 40.5675 51.0045 40.8541 51.7358 40.8541C52.1296 40.8541 52.4457 40.7389 52.6841 40.5085C52.9252 40.2782 53.0458 39.9728 53.0458 39.5897C53.0458 39.1638 52.9091 38.8236 52.6359 38.5718C52.4832 38.4298 52.3439 38.328 52.218 38.2691C52.0921 38.2075 51.7251 38.0628 51.1144 37.8351C49.9036 37.3771 49.2982 36.6859 49.2982 35.7698C49.2982 35.1563 49.5044 34.6447 49.9143 34.2268C50.3268 33.8116 50.8331 33.6027 51.4412 33.6027C51.6582 33.6027 51.9823 33.6669 52.4136 33.7982C52.5207 33.8303 52.6198 33.8464 52.7056 33.8464C52.9333 33.8464 53.0726 33.7366 53.1288 33.5196C53.161 33.4098 53.2092 33.3562 53.2735 33.3562C53.3485 33.3562 53.386 33.3991 53.386 33.4875V34.2723C53.3753 34.5349 53.402 34.9554 53.469 35.5314V35.5635C53.469 35.6519 53.4262 35.6948 53.3378 35.6948C53.2735 35.6948 53.1904 35.5287 53.0913 35.1992C52.9708 34.8027 52.7618 34.484 52.4618 34.2429C52.1618 34.0018 51.8162 33.8786 51.4224 33.8786C51.0501 33.8786 50.7447 33.9938 50.5063 34.2241C50.2652 34.4545 50.1473 34.7438 50.1473 35.0947C50.1473 35.6412 50.5143 36.0564 51.2429 36.3404C52.3787 36.7904 53.0967 37.1601 53.4047 37.4547C53.7717 37.811 53.9673 38.2396 53.9914 38.7379V38.9656L53.9887 38.9709Z" fill="black"/>
<path fill-rule="evenodd" clip-rule="evenodd" d="M13.9758 44.4169C13.9758 44.4678 13.9812 44.5187 13.9919 44.5669C14.0669 44.8803 14.2946 45.0303 14.525 45.0303C14.9187 45.0303 15.1196 44.6633 15.1196 44.1865C15.1196 43.766 14.9241 43.3722 14.5384 43.3722C14.2919 43.3722 14.0589 43.5758 13.9972 43.8597C13.9892 43.9106 13.9785 43.9669 13.9785 44.0178V44.4196L13.9758 44.4169ZM13.7937 43.8544C13.7937 43.5918 13.7856 43.415 13.7776 43.257H13.9517L13.9624 43.5838H13.9705C14.099 43.34 14.308 43.2195 14.5785 43.2195C14.9991 43.2195 15.3018 43.5838 15.3018 44.1785C15.3018 44.8669 14.9375 45.1857 14.5303 45.1857C14.2839 45.1857 14.0856 45.0652 13.9812 44.8723H13.9731V45.917H13.7937V43.857V43.8544Z" fill="black"/>
<path fill-rule="evenodd" clip-rule="evenodd" d="M17.094 44.6795C17.094 44.8617 17.102 45.0063 17.11 45.1429H16.9413L16.9306 44.8483H16.9225C16.8448 44.9929 16.652 45.1831 16.3519 45.1831C16.0921 45.1831 15.7733 45.0251 15.7733 44.3929V43.2571H15.9555V44.3581C15.9555 44.7438 16.0573 45.0251 16.3948 45.0251C16.6573 45.0251 16.8261 44.8215 16.885 44.6608C16.9011 44.6018 16.9118 44.5322 16.9118 44.4599V43.2571H17.094V44.6795Z" fill="black"/>
<path fill-rule="evenodd" clip-rule="evenodd" d="M17.7153 43.7847C17.7153 43.6106 17.7073 43.4231 17.6992 43.257H17.868L17.876 43.6133H17.8841C17.9591 43.3963 18.1439 43.2168 18.3823 43.2168C18.4064 43.2168 18.4252 43.2195 18.4439 43.2248V43.4016C18.4252 43.399 18.4011 43.399 18.3743 43.399C18.1198 43.399 17.9457 43.6293 17.9055 43.9106C17.8974 43.9669 17.8948 44.0258 17.8948 44.0847V45.1455H17.7153V43.7847Z" fill="black"/>
<path fill-rule="evenodd" clip-rule="evenodd" d="M19.8904 42.8445V43.257H20.3725V43.407H19.8904V44.65C19.8904 44.8964 19.9681 45.0223 20.1449 45.0223C20.2279 45.0223 20.2868 45.0143 20.3243 44.9982L20.3484 45.1402C20.2922 45.1643 20.2172 45.1804 20.1154 45.1804C19.9841 45.1804 19.8797 45.1402 19.8127 45.0545C19.735 44.9607 19.7055 44.8134 19.7055 44.6098V43.407H19.4109V43.257H19.7055V42.9195L19.885 42.8445H19.8904Z" fill="black"/>
<path fill-rule="evenodd" clip-rule="evenodd" d="M20.7932 43.2571L21.2245 44.4625C21.2727 44.6072 21.3155 44.7572 21.3477 44.8777H21.3557C21.3905 44.7626 21.4388 44.6099 21.4896 44.4545L21.8915 43.2571H22.0843L21.6129 44.5616C21.412 45.1349 21.2593 45.5314 21.0209 45.7805C20.8789 45.9144 20.753 45.9814 20.7021 46.0002L20.6351 45.8475C20.7289 45.8046 20.8441 45.7296 20.9485 45.6144C21.0396 45.5126 21.1441 45.3546 21.2191 45.1697C21.2352 45.1215 21.2432 45.1028 21.2432 45.0787C21.2432 45.0599 21.2378 45.0358 21.2245 45.001L20.603 43.2571H20.7958H20.7932Z" fill="black"/>
<path fill-rule="evenodd" clip-rule="evenodd" d="M26.5605 43.2571L26.8552 44.3072C26.9141 44.5188 26.965 44.7197 27.0052 44.9045H27.0159C27.0561 44.7224 27.1177 44.5161 27.1847 44.3098L27.5222 43.2571H27.6883L28.0097 44.2911C28.0794 44.5161 28.1357 44.7117 28.1839 44.9045H28.1946C28.2294 44.7197 28.2857 44.5268 28.3526 44.3018L28.6553 43.2571H28.8402L28.2589 45.1429H28.1062L27.7767 44.0875C27.707 43.8678 27.6561 43.683 27.6079 43.4714H27.5999C27.549 43.6964 27.4901 43.8866 27.4231 44.0955L27.0802 45.1456H26.9222L26.3757 43.2598H26.5605V43.2571Z" fill="black"/>
<path fill-rule="evenodd" clip-rule="evenodd" d="M30.3003 44.0204C30.3083 43.699 30.169 43.3722 29.81 43.3722C29.4511 43.3722 29.2904 43.7258 29.2609 44.0204H30.3029H30.3003ZM29.2502 44.1651C29.2502 44.8187 29.5609 45.0223 29.8958 45.0223C30.1288 45.0223 30.2574 44.9741 30.3511 44.9232L30.394 45.0652C30.319 45.1134 30.1395 45.1804 29.8716 45.1804C29.368 45.1804 29.0707 44.7866 29.0707 44.2294C29.0707 43.6079 29.3895 43.2195 29.8341 43.2195C30.3806 43.2195 30.4931 43.7606 30.4931 44.0526C30.4931 44.1008 30.4931 44.1303 30.4878 44.1678H29.2502V44.1651Z" fill="black"/>
<path fill-rule="evenodd" clip-rule="evenodd" d="M31.8565 44.1329C31.527 44.1249 31.0127 44.1731 31.0127 44.6392C31.0127 44.9151 31.1788 45.0277 31.3556 45.0277C31.6234 45.0277 31.7868 44.8509 31.8431 44.6553C31.8565 44.6151 31.8592 44.5723 31.8592 44.5401V44.1303L31.8565 44.1329ZM32.036 44.7035C32.036 44.8482 32.0387 45.0062 32.0601 45.1428H31.894L31.8699 44.891H31.8565C31.7708 45.0357 31.5886 45.183 31.3315 45.183C30.9966 45.183 30.8171 44.9366 30.8171 44.6633C30.8171 44.224 31.1895 43.9749 31.8538 43.9802V43.924C31.8538 43.6963 31.8136 43.3695 31.4172 43.3748C31.2752 43.3748 31.1225 43.415 31.0046 43.5007L30.9511 43.3668C31.093 43.265 31.2806 43.2168 31.4466 43.2168C31.902 43.2168 32.036 43.5463 32.036 43.9213V44.7035Z" fill="black"/>
<path fill-rule="evenodd" clip-rule="evenodd" d="M32.5773 43.2571L32.9791 44.4357C33.0381 44.5965 33.089 44.7572 33.1318 44.9152H33.1425C33.1827 44.7652 33.2417 44.6018 33.3006 44.4357L33.7024 43.2571H33.8926L33.2095 45.1429H33.0515L32.3925 43.2571H32.58H32.5773Z" fill="black"/>
<path fill-rule="evenodd" clip-rule="evenodd" d="M35.331 44.0204C35.339 43.699 35.2024 43.3722 34.8408 43.3722C34.4792 43.3722 34.3211 43.7258 34.2916 44.0204H35.3337H35.331ZM34.2836 44.1651C34.2836 44.8187 34.5943 45.0223 34.9292 45.0223C35.1596 45.0223 35.2908 44.9741 35.3846 44.9232L35.4274 45.0652C35.3524 45.1134 35.173 45.1804 34.9051 45.1804C34.4015 45.1804 34.1041 44.7866 34.1041 44.2294C34.1041 43.6079 34.4229 43.2195 34.8676 43.2195C35.4141 43.2195 35.5266 43.7606 35.5266 44.0526C35.5266 44.1008 35.5266 44.1303 35.5239 44.1678H34.2863L34.2836 44.1651Z" fill="black"/>
<path fill-rule="evenodd" clip-rule="evenodd" d="M35.9257 44.9018C36.0168 44.9607 36.1507 45.025 36.3061 45.025C36.574 45.025 36.7106 44.8723 36.7106 44.6714C36.7106 44.4705 36.6088 44.3606 36.357 44.2428C36.0784 44.1142 35.9096 43.9562 35.9096 43.7204C35.9096 43.4445 36.1213 43.2222 36.4507 43.2222C36.6168 43.2222 36.7508 43.2731 36.8365 43.3374L36.7615 43.4874C36.6945 43.4365 36.59 43.3802 36.4266 43.3802C36.2016 43.3802 36.0838 43.5302 36.0838 43.6936C36.0838 43.8785 36.1936 43.9615 36.4293 44.0794C36.6972 44.1999 36.8901 44.3553 36.8901 44.6419C36.8901 44.9794 36.6436 45.183 36.2927 45.183C36.1266 45.183 35.9712 45.1321 35.8561 45.0571L35.923 44.9044L35.9257 44.9018Z" fill="black"/>
<path fill-rule="evenodd" clip-rule="evenodd" d="M39.3706 43.9937C39.3706 43.9455 39.3652 43.8839 39.3545 43.833C39.3063 43.5812 39.1027 43.3722 38.8348 43.3722C38.4624 43.3722 38.2481 43.7446 38.2481 44.2134C38.2481 44.6366 38.4303 45.0304 38.8214 45.0304C39.0411 45.0304 39.2688 44.8884 39.3518 44.5589C39.3625 44.5107 39.3679 44.4652 39.3679 44.4089V43.9937H39.3706ZM39.55 42.373V44.7223C39.55 44.8456 39.5581 45.0277 39.5661 45.1429H39.4054L39.3947 44.8161H39.3839C39.2982 45.0063 39.1 45.1804 38.7946 45.1804C38.3901 45.1804 38.0687 44.8241 38.0687 44.2268C38.0687 43.5812 38.4196 43.2169 38.8268 43.2169C39.0893 43.2169 39.2795 43.3508 39.3652 43.5222H39.3732V42.3704H39.5554L39.55 42.373Z" fill="black"/>
<path fill-rule="evenodd" clip-rule="evenodd" d="M41.2644 44.0204C41.2724 43.699 41.1332 43.3722 40.7742 43.3722C40.4152 43.3722 40.2545 43.7258 40.225 44.0204H41.2671H41.2644ZM40.2143 44.1651C40.2143 44.8187 40.5251 45.0223 40.8599 45.0223C41.093 45.0223 41.2215 44.9741 41.3153 44.9232L41.3582 45.0652C41.2832 45.1134 41.1037 45.1804 40.8358 45.1804C40.3322 45.1804 40.0349 44.7866 40.0349 44.2294C40.0349 43.6079 40.3536 43.2195 40.7983 43.2195C41.3448 43.2195 41.4573 43.7606 41.4573 44.0526C41.4573 44.1008 41.4573 44.1303 41.4519 44.1678H40.2143V44.1651Z" fill="black"/>
<path fill-rule="evenodd" clip-rule="evenodd" d="M41.8564 44.9018C41.9475 44.9607 42.0814 45.025 42.2368 45.025C42.5047 45.025 42.6413 44.8723 42.6413 44.6714C42.6413 44.4705 42.5395 44.3606 42.2877 44.2428C42.0091 44.1142 41.8404 43.9562 41.8404 43.7204C41.8404 43.4445 42.052 43.2222 42.3815 43.2222C42.5476 43.2222 42.6788 43.2731 42.7672 43.3374L42.6922 43.4874C42.6252 43.4365 42.5181 43.3802 42.3574 43.3802C42.1323 43.3802 42.0145 43.5302 42.0145 43.6936C42.0145 43.8785 42.1243 43.9615 42.36 44.0794C42.6279 44.1999 42.8208 44.3553 42.8208 44.6419C42.8208 44.9794 42.5743 45.183 42.2234 45.183C42.0573 45.183 41.902 45.1321 41.7868 45.0571L41.8538 44.9044L41.8564 44.9018Z" fill="black"/>
<path fill-rule="evenodd" clip-rule="evenodd" d="M43.5575 42.8445V43.257H44.0397V43.407H43.5575V44.65C43.5575 44.8964 43.6352 45.0223 43.812 45.0223C43.8951 45.0223 43.954 45.0143 43.9915 44.9982L44.0156 45.1402C43.962 45.1643 43.887 45.1804 43.7826 45.1804C43.654 45.1804 43.5468 45.1402 43.4799 45.0545C43.4022 44.9607 43.3727 44.8134 43.3727 44.6098V43.407H43.078V43.257H43.3727V42.9195L43.5549 42.8445H43.5575Z" fill="black"/>
<path fill-rule="evenodd" clip-rule="evenodd" d="M44.4576 43.2571H44.6371V45.1429H44.4576V43.2571ZM44.6933 42.7347C44.6933 42.8258 44.6371 42.8928 44.5433 42.8928C44.4656 42.8928 44.4067 42.8258 44.4067 42.7347C44.4067 42.6436 44.471 42.5767 44.5514 42.5767C44.6371 42.5767 44.6933 42.6463 44.6933 42.7347Z" fill="black"/>
<path fill-rule="evenodd" clip-rule="evenodd" d="M45.2612 43.707C45.2612 43.5142 45.2532 43.4043 45.2451 43.2597H45.4139L45.4246 43.5704H45.4326C45.5237 43.3749 45.7353 43.2195 46.0113 43.2195C46.1988 43.2195 46.6006 43.3266 46.6006 43.9615V45.1428H46.4211V43.991C46.4211 43.6695 46.314 43.3749 45.9604 43.3749C45.73 43.3749 45.5237 43.5463 45.4621 43.7954C45.4514 43.8436 45.4434 43.9026 45.4434 43.9615V45.1428H45.2639V43.7043L45.2612 43.707Z" fill="black"/>
<path fill-rule="evenodd" clip-rule="evenodd" d="M47.1364 43.2571L47.5677 44.4625C47.6159 44.6072 47.6587 44.7572 47.6882 44.8777H47.6962C47.7311 44.7626 47.7793 44.6099 47.8302 44.4545L48.232 43.2571H48.4249L47.9534 44.5616C47.7525 45.1349 47.5998 45.5314 47.3587 45.7805C47.2167 45.9144 47.0908 45.9814 47.0399 46.0002L46.973 45.8475C47.0667 45.8046 47.1819 45.7296 47.2864 45.6144C47.3775 45.5126 47.4819 45.3546 47.5569 45.1697C47.573 45.1215 47.581 45.1028 47.581 45.0787C47.581 45.0599 47.5757 45.0358 47.5623 45.001L46.9408 43.2571H47.1337H47.1364Z" fill="black"/>
<path fill-rule="evenodd" clip-rule="evenodd" d="M18.8378 43.2571H19.0173V45.1429H18.8378V43.2571ZM19.0736 42.7347C19.0736 42.8258 19.0173 42.8928 18.9236 42.8928C18.8459 42.8928 18.787 42.8258 18.787 42.7347C18.787 42.6436 18.8486 42.5767 18.9316 42.5767C19.0146 42.5767 19.0736 42.6463 19.0736 42.7347Z" fill="black"/>
<path fill-rule="evenodd" clip-rule="evenodd" d="M37.7631 15.4431C38.3979 15.0788 38.8962 15.2609 39.3596 15.4324C39.5364 15.4993 39.7079 15.561 39.8605 15.577C39.9623 15.5851 40.1177 15.4672 40.2677 15.3493C40.3963 15.2502 40.5195 15.1538 40.6588 15.0948C40.9776 14.9582 41.2696 15.0091 41.508 15.5636L41.0847 15.7431C40.991 15.5235 40.9133 15.486 40.8383 15.5181C40.7553 15.5529 40.6535 15.6333 40.549 15.711C40.324 15.8824 40.0963 16.0592 39.815 16.0324C39.6007 16.011 39.4025 15.9387 39.1989 15.8637C38.8319 15.727 38.4381 15.5824 37.9881 15.8422L37.7604 15.4431H37.7631Z" fill="black"/>
<path fill-rule="evenodd" clip-rule="evenodd" d="M57.3048 21.4357C57.3048 21.5027 57.1869 21.5402 56.9485 21.5482C56.7101 21.5616 56.5627 21.5777 56.4985 21.6071C56.4342 21.6366 56.3779 21.725 56.327 21.8643L56.2225 22.1295L56.1047 22.5045C55.9654 22.9599 55.7618 23.635 55.4832 24.535C54.701 27.0451 54.0527 28.9952 53.5411 30.3775C53.225 31.2186 52.7883 31.6392 52.2338 31.6392C51.9981 31.6392 51.8052 31.5722 51.6499 31.4329C51.4945 31.2936 51.4195 31.1141 51.4195 30.8945C51.4195 30.7043 51.4811 30.5543 51.6043 30.4364C51.7275 30.3185 51.8909 30.2596 52.0892 30.2596C52.3544 30.2596 52.5473 30.3694 52.6678 30.5837C52.7562 30.7525 52.8285 30.8355 52.8901 30.8355C52.9785 30.8355 53.1125 30.5918 53.3027 30.1096C53.5813 29.3917 53.7982 28.7434 53.959 28.1675C53.2223 26.2495 52.6008 24.5725 52.0892 23.1394C51.7302 22.159 51.5347 21.6687 51.4972 21.6554C51.4382 21.6098 51.2775 21.583 51.0123 21.583C50.7471 21.583 50.6212 21.5321 50.6212 21.4357C50.6212 21.3553 50.6855 21.3152 50.8141 21.3152C50.9186 21.3152 51.0873 21.3232 51.3177 21.3366C51.5454 21.3527 51.7168 21.3607 51.8347 21.3607H52.1026C52.3088 21.3473 52.5955 21.3393 52.9598 21.3312L53.7152 21.3152C53.825 21.3152 53.8786 21.358 53.8786 21.4357C53.8786 21.5027 53.6938 21.5402 53.3268 21.5536C53.0187 21.5616 52.8687 21.6125 52.8687 21.7009C52.8687 21.7813 52.9705 22.0866 53.166 22.6224C53.2464 22.8501 53.3295 23.0858 53.4179 23.3323L53.667 24.077C53.7393 24.2913 53.9188 24.7868 54.2188 25.5557C54.3152 25.7941 54.4251 26.0807 54.5483 26.4182C55.4939 23.4421 55.9681 21.8777 55.9681 21.7304C55.9681 21.642 55.9306 21.5884 55.8582 21.567C55.7832 21.5455 55.5716 21.5375 55.2287 21.5375C55.1323 21.5375 55.0814 21.5 55.0814 21.4196C55.0814 21.3473 55.1403 21.3152 55.2582 21.3152C55.3091 21.3152 55.3466 21.3205 55.376 21.3312C55.7136 21.3527 55.9895 21.3607 56.2091 21.3607H56.6244C56.8012 21.3607 56.919 21.3553 56.9726 21.3446C57.0262 21.3366 57.0905 21.3312 57.1708 21.3312C57.2592 21.3312 57.3048 21.366 57.3048 21.4357ZM49.2041 24.3422C49.2041 23.4126 49.0568 22.6947 48.7675 22.1884C48.4782 21.6875 48.071 21.4357 47.5433 21.4357C47.2701 21.4357 47.0102 21.5187 46.7611 21.6929C46.5146 21.8643 46.3459 22.0786 46.2575 22.3358C46.1691 22.5929 46.1235 23.3751 46.1235 24.6824C46.1235 25.9896 46.1584 26.8602 46.2253 27.1174C46.3352 27.5326 46.6968 27.7389 47.3102 27.7389C47.9237 27.7389 48.3228 27.5165 48.6014 27.0718C49.0059 26.4129 49.2068 25.4994 49.2068 24.3422H49.2041ZM50.5569 24.2672C50.5569 25.2985 50.2462 26.1718 49.6247 26.8897C48.9979 27.613 48.2451 27.9746 47.3665 27.9746C47.0611 27.9746 46.7397 27.9103 46.4048 27.7817C46.0673 27.6558 45.8423 27.5915 45.719 27.5915C45.6146 27.5915 45.4913 27.6371 45.3547 27.7308C45.2154 27.8273 45.111 27.8728 45.0386 27.8728C44.9583 27.8728 44.9208 27.7094 44.9208 27.3799V19.6704C44.9208 18.6712 44.8592 18.1328 44.7279 18.0524C44.677 18.0229 44.4841 18.0095 44.152 18.0095C43.9135 18.0095 43.793 17.9667 43.793 17.8863C43.793 17.8193 43.8466 17.7845 43.9564 17.7845H44.1627C44.7038 17.7845 45.2315 17.672 45.7351 17.4443C45.8824 17.372 45.9869 17.3398 46.0459 17.3398H46.1048V21.9982C46.4798 21.4357 47.0424 21.1544 47.7951 21.1544C48.6282 21.1544 49.2952 21.4357 49.8015 22.0036C50.3051 22.5715 50.5569 23.3269 50.5569 24.2645V24.2672ZM40.7365 25.9146C40.7365 26.4906 40.5276 26.9727 40.107 27.3746C39.6864 27.7737 39.1855 27.9746 38.6015 27.9746C38.264 27.9746 37.8568 27.8567 37.3746 27.621C37.2434 27.5487 37.1309 27.5165 37.0291 27.5165C36.8898 27.5165 36.7907 27.6103 36.7183 27.7978C36.6808 27.9157 36.6273 27.9746 36.5576 27.9746C36.4853 27.9746 36.4531 27.9371 36.4531 27.8567C36.4531 27.8058 36.4558 27.7469 36.4665 27.6799C36.496 27.4817 36.5121 27.187 36.5121 26.8066C36.5121 26.7772 36.5067 26.654 36.4987 26.4504C36.4853 26.2441 36.4826 26.1048 36.4826 26.0352V25.8718C36.4826 25.7673 36.5174 25.711 36.5871 25.711C36.6674 25.711 36.7103 25.7646 36.7183 25.8718C36.7773 26.3298 36.9085 26.6834 37.1041 26.9406C37.5005 27.4576 38.0283 27.7148 38.6926 27.7148C39.0489 27.7148 39.3355 27.6103 39.5552 27.404C39.7695 27.1978 39.8793 26.9192 39.8793 26.5709C39.8793 26.1879 39.7561 25.8825 39.5096 25.6494C39.3703 25.5235 39.2444 25.4298 39.1319 25.3762C39.0194 25.3226 38.6819 25.1913 38.1274 24.9851C37.0291 24.5699 36.4826 23.9457 36.4826 23.1153C36.4826 22.5635 36.6728 22.0974 37.0452 21.725C37.4202 21.35 37.8863 21.1625 38.4408 21.1625C38.639 21.1625 38.9337 21.2214 39.3275 21.3393C39.4239 21.3687 39.5177 21.3821 39.598 21.3821C39.8043 21.3821 39.9329 21.2857 39.9811 21.0875C40.0106 20.991 40.0561 20.9401 40.115 20.9401C40.1874 20.9401 40.2195 20.9776 40.2195 21.058C40.2195 21.066 40.2142 21.0955 40.2034 21.1464L40.1927 21.7679C40.1793 22.0063 40.2034 22.3867 40.265 22.9117V22.9412C40.265 23.0215 40.2275 23.059 40.1472 23.059C40.0882 23.059 40.0132 22.9117 39.9248 22.6144C39.8204 22.2581 39.6302 21.9715 39.3569 21.7518C39.0837 21.5375 38.7676 21.4277 38.4113 21.4277C38.0792 21.4277 37.8006 21.5321 37.5836 21.7384C37.3639 21.9447 37.2568 22.2099 37.2568 22.5233C37.2568 23.0162 37.5889 23.3939 38.2533 23.651C39.2819 24.0582 39.9356 24.3957 40.2088 24.6609C40.5678 25.0092 40.7419 25.4298 40.7419 25.9227L40.7365 25.9146ZM36.0379 26.9218C36.0379 27.0102 35.9174 27.171 35.6683 27.396C35.245 27.779 34.7387 27.9719 34.1548 27.9719C33.6136 27.9719 33.2011 27.8326 32.9225 27.5594C32.7671 27.3987 32.6868 26.9326 32.6868 26.1637V21.7464C32.6734 21.6446 32.6198 21.5911 32.5234 21.583H31.9608C31.7412 21.583 31.634 21.5482 31.634 21.4786C31.634 21.4089 31.6876 21.3687 31.7974 21.3607C32.5662 21.2884 33.1716 20.916 33.6056 20.2329C33.6672 20.1445 33.7395 20.099 33.8279 20.099C33.9003 20.099 33.9324 20.1338 33.9324 20.2035V20.2624C33.919 20.3133 33.9163 20.3963 33.9163 20.5142C33.9163 20.9294 33.9378 21.1946 33.9806 21.3125C34.069 21.3339 34.2164 21.3419 34.4226 21.3419C34.9637 21.3419 35.3254 21.3178 35.5075 21.2696C35.545 21.2562 35.5825 21.2535 35.612 21.2535C35.6924 21.2535 35.7299 21.2991 35.7299 21.3875C35.7299 21.5348 35.3307 21.6098 34.5271 21.6098C34.3878 21.6098 34.1869 21.6045 33.9163 21.5937V24.3395C33.9163 25.7217 33.9512 26.5923 34.0208 26.9406C34.0931 27.2888 34.3182 27.4656 34.7012 27.4656C35.028 27.4656 35.395 27.2835 35.7995 26.9192C35.8424 26.8683 35.8879 26.8442 35.9335 26.8442C36.0058 26.8442 36.0379 26.8683 36.0379 26.9192V26.9218ZM31.1572 25.9146C31.1572 26.4906 30.9483 26.9727 30.5277 27.3746C30.1071 27.7737 29.6062 27.9746 29.0222 27.9746C28.6847 27.9746 28.2775 27.8567 27.7953 27.621C27.6641 27.5487 27.5516 27.5165 27.4498 27.5165C27.3105 27.5165 27.2087 27.6103 27.139 27.7978C27.1015 27.9157 27.0453 27.9746 26.9783 27.9746C26.906 27.9746 26.8738 27.9371 26.8738 27.8567C26.8738 27.8058 26.8792 27.7469 26.8872 27.6799C26.9167 27.4817 26.9328 27.187 26.9328 26.8066C26.9328 26.7772 26.9274 26.654 26.9194 26.4504C26.906 26.2441 26.9033 26.1048 26.9033 26.0352V25.8718C26.9033 25.7673 26.9381 25.711 27.0078 25.711C27.0881 25.711 27.1283 25.7646 27.139 25.8718C27.198 26.3298 27.3292 26.6834 27.5248 26.9406C27.9212 27.4576 28.449 27.7148 29.1133 27.7148C29.4696 27.7148 29.7562 27.6103 29.9759 27.404C30.1902 27.1978 30.3 26.9192 30.3 26.5709C30.3 26.1879 30.1794 25.8825 29.9303 25.6494C29.791 25.5235 29.6651 25.4298 29.5526 25.3762C29.4401 25.3226 29.1026 25.1913 28.5481 24.9851C27.4498 24.5699 26.9033 23.9457 26.9033 23.1153C26.9033 22.5635 27.0935 22.0974 27.4658 21.725C27.8409 21.35 28.307 21.1625 28.8615 21.1625C29.0597 21.1625 29.3544 21.2214 29.7482 21.3393C29.8446 21.3687 29.9384 21.3821 30.016 21.3821C30.2223 21.3821 30.3536 21.2857 30.3991 21.0875C30.4286 20.991 30.4741 20.9401 30.533 20.9401C30.6054 20.9401 30.6375 20.9776 30.6375 21.058C30.6375 21.066 30.6322 21.0955 30.6214 21.1464L30.608 21.7679C30.5947 22.0063 30.6214 22.3867 30.6804 22.9117V22.9412C30.6804 23.0215 30.6429 23.059 30.5625 23.059C30.5036 23.059 30.4286 22.9117 30.3402 22.6144C30.2357 22.2581 30.0455 21.9715 29.7723 21.7518C29.499 21.5375 29.1829 21.4277 28.8267 21.4277C28.4945 21.4277 28.2159 21.5321 27.9989 21.7384C27.7793 21.9447 27.6721 22.2099 27.6721 22.5233C27.6721 23.0162 28.0043 23.3939 28.6686 23.651C29.6973 24.0582 30.3509 24.3957 30.6241 24.6609C30.9804 25.0092 31.1572 25.4298 31.1572 25.9227V25.9146ZM24.4978 23.1555C24.4602 21.9661 24.0343 21.3741 23.2253 21.3741C22.4163 21.3741 21.9261 21.9661 21.7279 23.1555H24.4978ZM25.7862 26.1798C25.7862 26.2816 25.7112 26.4584 25.5585 26.7102C25.4032 26.962 25.2478 27.1683 25.0871 27.3237C24.6612 27.7576 24.0959 27.9746 23.3834 27.9746C22.4913 27.9746 21.7466 27.6558 21.152 27.0129C20.5519 26.37 20.2519 25.5744 20.2519 24.6261C20.2519 23.6778 20.5385 22.8099 21.1064 22.1509C21.6743 21.492 22.3842 21.1598 23.2334 21.1598C23.9352 21.1598 24.5272 21.366 25.004 21.7732C25.4782 22.1804 25.7273 22.7108 25.7568 23.3537C25.4407 23.3992 25.0201 23.4207 24.4951 23.4126L23.4557 23.3966C23.3887 23.3966 22.7967 23.4126 21.677 23.4421C21.6261 23.7662 21.602 24.077 21.602 24.3743C21.602 25.3708 21.7922 26.1396 22.1726 26.6781C22.5556 27.2219 23.0887 27.4897 23.7825 27.4897C24.179 27.4897 24.4924 27.4013 24.7335 27.2219C24.9692 27.0451 25.2264 26.7049 25.5023 26.2012C25.5398 26.1209 25.5961 26.0834 25.6657 26.0834C25.7461 26.0834 25.7836 26.1182 25.7836 26.1852L25.7862 26.1798ZM19.7831 22.159C19.7831 22.3893 19.7161 22.5742 19.5768 22.7215C19.4375 22.8688 19.2581 22.9438 19.0384 22.9438C18.8616 22.9438 18.7143 22.893 18.5964 22.7885C18.4732 22.684 18.4169 22.5527 18.4169 22.3974C18.4169 22.2581 18.4625 22.1375 18.5509 22.0411C18.6393 21.9447 18.6848 21.8723 18.6848 21.8348C18.6848 21.6875 18.575 21.6125 18.358 21.6125C18.0794 21.6125 17.8463 21.7839 17.6481 22.1295C17.4204 22.5367 17.3079 23.2894 17.3079 24.3877V27.321C17.3079 27.4388 17.3508 27.5138 17.4338 27.5433C17.5169 27.5728 17.7713 27.5942 18.1946 27.6022C18.3044 27.6237 18.358 27.6612 18.358 27.7201C18.358 27.7924 18.2937 27.8246 18.1651 27.8246C17.9374 27.8246 17.7285 27.8192 17.5302 27.8112C17.332 27.7978 16.9543 27.7951 16.4025 27.7951C16.1132 27.7951 15.9069 27.8005 15.781 27.8112C15.6497 27.8192 15.4863 27.8246 15.2881 27.8246C15.1327 27.8246 15.0524 27.7898 15.0524 27.7201C15.0524 27.6531 15.114 27.6183 15.2426 27.6183H15.4515C15.789 27.6183 15.9846 27.5755 16.0435 27.4951C16.065 27.4576 16.073 27.2728 16.073 26.9486V22.8715C16.073 22.3304 15.9926 22.0143 15.8292 21.9286C15.6658 21.8456 15.4087 21.7973 15.0524 21.7866C14.9292 21.7866 14.8702 21.7518 14.8702 21.6848C14.8702 21.6125 14.9211 21.5803 15.0176 21.5803H15.122C15.2694 21.5803 15.4194 21.5884 15.5667 21.6018C15.714 21.6152 15.781 21.6232 15.7596 21.6232C16.1266 21.6232 16.5284 21.5187 16.9757 21.3125L17.1686 21.2241L17.2865 21.1812C17.324 21.4169 17.3454 21.6527 17.3454 21.8911V22.1858C17.6615 21.4973 18.1062 21.1517 18.6821 21.1517C18.9982 21.1517 19.2634 21.2482 19.467 21.4384C19.6733 21.6312 19.7777 21.8723 19.7777 22.1563L19.7831 22.159ZM12.9897 24.5779C12.9897 23.4903 12.821 22.6438 12.4888 22.0438C12.2397 21.5991 11.8244 21.3741 11.2405 21.3741C10.6886 21.3741 10.2574 21.6607 9.94662 22.2286C9.63053 22.7965 9.47516 23.5868 9.47516 24.5967C9.47516 25.6066 9.64392 26.37 9.97609 26.9299C10.3083 27.4897 10.7663 27.771 11.3583 27.771C11.8164 27.771 12.1539 27.5996 12.3682 27.2486C12.7834 26.5977 12.9897 25.711 12.9897 24.5779ZM14.3452 24.594C14.3452 25.553 14.0559 26.3566 13.4719 27.0022C12.8879 27.6505 12.1593 27.9746 11.2914 27.9746C10.4234 27.9746 9.63856 27.6505 9.03852 27.0022C8.43311 26.3539 8.13041 25.553 8.13041 24.594C8.13041 23.635 8.42508 22.7831 9.01441 22.1295C9.60374 21.4786 10.3377 21.1544 11.2164 21.1544C12.095 21.1544 12.8504 21.4812 13.4531 22.1375C14.0505 22.7965 14.3479 23.6135 14.3479 24.594H14.3452ZM7.66966 19.965C7.66966 20.1043 7.61876 20.174 7.51965 20.174C7.42053 20.174 7.35088 20.0534 7.31338 19.8043C7.19552 19.0944 6.95175 18.5721 6.58743 18.2453C6.34902 18.039 5.98203 17.9077 5.48913 17.8595C5.31233 17.8381 4.91855 17.8301 4.30243 17.8301C3.84972 17.8301 3.30593 17.8461 2.67106 17.8756V22.2045C3.93544 22.2179 4.71497 22.1322 5.01231 21.9607C5.30966 21.7893 5.48645 21.3018 5.54539 20.4981C5.56682 20.2704 5.62575 20.1579 5.72219 20.1579C5.81862 20.1579 5.8722 20.2329 5.8722 20.3803C5.8722 20.4687 5.86684 20.5437 5.85613 20.6026C5.82666 21.283 5.81327 21.9179 5.81327 22.5019C5.81327 23.2546 5.8347 23.8466 5.8722 24.2806C5.88024 24.3181 5.88559 24.377 5.88559 24.4574C5.88559 24.5806 5.8347 24.6368 5.73826 24.6368C5.6579 24.6368 5.61236 24.6074 5.59093 24.5458C5.5695 24.4868 5.53735 24.2591 5.48645 23.8653C5.40609 23.2653 5.25072 22.8849 5.02035 22.7376C4.78997 22.5902 4.32654 22.5152 3.63274 22.5152C3.26575 22.5152 2.94697 22.5233 2.67106 22.5447L2.68445 24.0582L2.65498 26.962C2.65498 27.2513 2.76749 27.4335 2.99519 27.5138C3.10502 27.5513 3.34879 27.5674 3.72114 27.5594C3.88187 27.5594 3.95955 27.5969 3.95955 27.6773C3.95955 27.7657 3.85776 27.8112 3.66221 27.8112H3.51487C3.37558 27.8112 3.18806 27.8058 2.95233 27.7951H2.4889L0.281587 27.8112C0.0913932 27.8112 0.000314713 27.7683 0.000314713 27.688C0.000314713 27.6076 0.171757 27.5621 0.511962 27.5406C0.852167 27.5192 1.0504 27.4737 1.10933 27.3987C1.16826 27.3263 1.19773 27.096 1.19773 26.7102L1.18434 18.2024C1.17094 18.0203 1.12272 17.9131 1.02897 17.8649C0.93253 17.8193 0.680725 17.7926 0.262835 17.7845C0.107466 17.7845 0.0271025 17.7309 0.0271025 17.6211C0.0271025 17.5247 0.115502 17.4738 0.292302 17.4738H0.530713C0.509283 17.4738 0.988784 17.4791 1.96386 17.4872C2.93358 17.5006 3.73453 17.5032 4.35601 17.5032C6.02489 17.5032 7.05086 17.4604 7.42589 17.3827C7.43928 17.514 7.46875 17.8836 7.51429 18.4971C7.54376 18.9123 7.58662 19.282 7.63751 19.6114C7.65895 19.7507 7.66698 19.8686 7.66698 19.965H7.66966Z" fill="black"/>
<path fill-rule="evenodd" clip-rule="evenodd" d="M22.1565 12.7242L21.2457 13.6779L20.9136 13.3618L21.8244 12.4081L22.1565 12.7242ZM22.186 11.208L21.2752 12.1617L20.943 11.8456L21.8538 10.8919L22.186 11.208ZM20.3671 11.5375L20.0349 11.8536L20.9457 12.8073L21.2779 12.4912L20.3671 11.5375ZM21.3529 10.6615H20.8948L20.9002 15.2798H21.3583L21.3529 10.6615ZM23.804 12.025C23.7531 11.7652 23.587 11.6607 23.4022 11.5027C23.5843 11.3286 23.7049 11.2589 23.7102 10.9776C23.7183 10.6374 23.5227 10.4017 23.1691 10.391L22.8182 10.3803L22.9682 10.0642C23.4852 8.96588 21.7226 8.03902 21.144 8.8373L21.0047 9.02749L20.8171 8.88552C20.5118 8.65514 20.0323 8.76497 19.7296 8.94713C19.2822 9.21769 19.0572 9.68112 19.1536 10.2035L19.2286 10.6026L18.8482 10.4606C18.5348 10.3428 17.9187 10.9562 18.3205 11.3205L18.4491 11.4384L18.3714 11.5938C18.133 12.0652 18.3661 12.6653 18.8268 12.8983C19.1375 13.0537 19.384 12.9787 19.7001 12.9224L19.6653 13.2278C19.6358 13.4796 19.8769 13.7555 20.0858 13.8654C20.3885 14.0261 20.6805 13.9431 20.9136 13.7046L21.0555 13.56L21.2163 13.6832C21.5618 13.9457 22.0172 13.9698 22.4057 13.7984C22.6655 13.6832 22.9494 13.4448 22.9682 13.1394L22.9789 12.9599C23.2414 12.9064 23.4477 12.8715 23.6352 12.6519C23.7825 12.4804 23.8522 12.2447 23.8067 12.0224L23.804 12.025ZM24.0424 11.4732C24.187 11.2107 24.2058 10.8732 24.112 10.5919C24.0102 10.2919 23.7879 10.0695 23.4825 9.97846C23.8227 8.60425 21.8565 7.49255 20.9082 8.4087C20.4609 8.19975 19.9037 8.3069 19.4938 8.55335C18.9795 8.86141 18.658 9.38645 18.6714 9.99453C18.0017 10.0749 17.4312 10.9401 17.8973 11.5375C17.5758 12.4322 18.2643 13.4528 19.2233 13.4528C19.2983 13.8011 19.5635 14.1091 19.8715 14.2752C20.2841 14.4922 20.7314 14.444 21.0957 14.16C21.5511 14.4279 22.111 14.4333 22.5905 14.2243C22.9628 14.0609 23.303 13.7475 23.3995 13.3403C23.8067 13.2091 24.1254 12.8876 24.2353 12.4724C24.3263 12.1268 24.2647 11.7572 24.0424 11.4759V11.4732ZM27.6721 5.63884C28.2883 5.02272 28.2909 4.01014 27.6721 3.39134C27.056 2.77522 26.0408 2.77254 25.4246 3.39134C24.8058 4.00746 24.8085 5.02272 25.4246 5.63884C26.0408 6.25496 27.056 6.25496 27.6721 5.63884ZM28.5963 4.58608C28.5829 5.02004 28.4302 5.41918 28.1865 5.74599L28.9821 6.57909L28.6499 6.89518L27.873 6.08084C27.5703 6.338 27.19 6.50944 26.7747 6.55498V7.6506H26.314V6.55498C25.88 6.50676 25.4889 6.31925 25.1809 6.04333L24.3746 6.84697L24.0504 6.52016L24.8755 5.69777C24.6532 5.38167 24.5165 5.00129 24.5031 4.58876H23.2522V4.12801H24.538C24.613 3.74494 24.7924 3.39938 25.0469 3.12614L24.1013 2.13767L24.4335 1.82158L25.3925 2.82612C25.6604 2.64396 25.9738 2.52342 26.3113 2.48324V1.06348H26.7721V2.47788C27.1257 2.51806 27.4552 2.64664 27.7311 2.84219L28.7088 1.86712L29.033 2.19125L28.074 3.14757C28.315 3.41813 28.4865 3.75298 28.5588 4.12265H29.8312V4.5834H28.5936L28.5963 4.58608ZM20.5627 8.41673C20.5921 8.44888 20.6189 8.4837 20.6457 8.51853C20.4769 8.49174 20.2921 8.55871 20.1528 8.65514C20.0778 8.58282 19.9921 8.51317 19.9117 8.4462L20.0939 8.27208C20.3564 8.02027 20.3859 7.51934 20.2733 7.18985C20.1287 6.76392 19.7805 6.55498 19.3358 6.54426L18.9849 6.53355L19.1322 6.21745C20.0242 4.3182 17.0106 2.71897 15.9953 4.12801L15.8587 4.3182L15.6712 4.17622C15.1408 3.77441 14.3184 3.94585 13.7853 4.2673C13.0219 4.72805 12.6361 5.51829 12.8022 6.41033L12.8772 6.80946L12.4969 6.66749C11.862 6.42908 10.761 7.58363 11.5191 8.2694L11.6477 8.38727L11.57 8.54263C11.2834 9.10786 11.3825 9.78023 11.7495 10.2812C12.1245 10.7955 12.7192 11.0553 13.3514 10.9428L13.6568 10.8866L13.6219 11.1946C13.5684 11.6554 13.9782 12.1402 14.364 12.3438C14.9024 12.6278 15.4274 12.4858 15.8426 12.0626L15.9846 11.9179L16.1453 12.0411C16.732 12.4885 17.5062 12.534 18.1732 12.242C18.1598 12.4135 18.1893 12.5742 18.2669 12.7001C17.533 12.9894 16.6999 12.9465 16.0275 12.5153C15.481 12.9867 14.7952 13.0885 14.1523 12.7483C13.6675 12.4912 13.2442 11.9795 13.1719 11.4223C11.6557 11.5054 10.536 9.87399 11.0985 8.4837C10.5012 7.80061 10.9003 6.8684 11.5753 6.42104C11.8057 6.26835 12.0656 6.17459 12.3201 6.17459C12.2531 5.20755 12.7406 4.36374 13.5603 3.87084C14.2006 3.4851 15.0899 3.31634 15.7703 3.68869C16.4909 2.90916 17.6669 3.02971 18.5107 3.52796C19.4161 4.06371 20.0081 5.05218 19.6733 6.11834C20.1796 6.22281 20.5519 6.55498 20.718 7.04252C20.8654 7.48184 20.8279 8.02831 20.5734 8.41941L20.5627 8.41673ZM17.533 10.3053L16.0784 11.8268L15.7462 11.5107L17.2008 9.98918L17.533 10.3053ZM17.5812 8.68729L16.1266 10.2088L15.7944 9.89274L17.249 8.37119L17.5812 8.68729ZM14.6559 8.99803L14.3238 9.31412L15.7784 10.8357L16.1105 10.5196L14.6559 8.99803ZM16.1909 8.4462H15.7328V14.9663H16.1936V8.4462H16.1909ZM27.4391 17.2004C27.782 16.579 28.2641 16.3245 28.8883 16.7397C28.9204 16.3245 29.1615 16.0566 29.5473 15.9039C29.7562 15.2048 30.3402 15.0735 30.9965 15.2208C31.1626 15.1994 31.3367 15.119 31.5055 15.0414C31.9769 14.8271 32.4377 14.6181 33.0511 15.1431C33.2574 15.3199 33.6083 15.2423 33.9566 15.1673C34.1789 15.119 34.4012 15.0708 34.6236 15.0735C34.7361 15.0735 34.8781 14.9315 35.0173 14.7869C35.1459 14.6529 35.2772 14.5217 35.4352 14.4413C35.7996 14.2591 36.1933 14.3556 36.6809 15.2878C37.4416 15.5369 37.5675 16.078 37.6934 16.6192C37.7095 16.6888 37.7256 16.7585 37.7443 16.8281C38.698 16.2147 39.5016 16.3218 40.3454 17.0906C40.5249 17.1281 40.7098 17.1201 40.8919 17.1683C41.2964 17.2755 41.5723 17.5514 41.3152 18.5238L40.8705 18.4059C41.0285 17.8059 40.9321 17.6532 40.774 17.613C40.5785 17.5621 40.3695 17.5782 40.166 17.5192L40.0722 17.4656C39.5954 17.0156 39.1882 16.8683 38.8239 16.8924C38.3337 16.9245 37.9051 17.2647 37.5193 17.546L37.4068 17.2781C37.147 16.662 37.2675 15.9227 36.4585 15.7003L36.3594 15.6735C36.2657 15.4887 35.9147 14.7119 35.6361 14.8512C35.5477 14.8967 35.4433 15.0012 35.3415 15.1056C35.1325 15.3199 34.9236 15.5342 34.6129 15.5289C34.4468 15.5289 34.2485 15.5691 34.0503 15.6146C33.5922 15.7137 33.1288 15.8155 32.7484 15.4914C32.0975 14.9342 31.5832 15.7244 30.9269 15.6735C30.4527 15.5584 30.0777 15.5878 29.9625 16.1263L29.933 16.2575C29.7134 16.3272 29.4508 16.3995 29.3678 16.6433C29.3142 16.8067 29.341 17.0183 29.4053 17.2487L29.0169 17.4656C28.6874 17.1094 28.449 16.9781 28.2722 16.9995C28.1115 17.0183 27.9695 17.1817 27.8382 17.4201L27.4364 17.1978L27.4391 17.2004ZM16.1078 1.09027L16.9222 0.0857277L17.4767 0.436648L18.05 0.0241158L18.8616 1.04741L18.5402 1.30189L17.9723 0.583981L17.4901 0.929543L17.0106 0.624162L16.4239 1.34743L16.1078 1.09027ZM19.7456 3.21454L20.0617 3.4717L20.6457 2.75111L21.1252 3.05649L21.6074 2.71093L22.1753 3.42884L22.4967 3.17436L21.6851 2.15107L21.1118 2.5636L20.5573 2.21268L19.7429 3.21722L19.7456 3.21454ZM20.6752 1.06616L20.9913 1.32332L21.5752 0.602732L22.0547 0.908113L22.5369 0.56255L23.1048 1.28046L23.4263 1.02866L22.6146 0.00268555L22.0413 0.415218L21.4868 0.0642975L20.6752 1.06884V1.06616ZM36.8121 11.3795C37.0532 11.8965 37.5729 12.5206 38.1917 12.5206H38.2185C39.3972 12.6813 40.2035 11.9125 40.3562 10.766C40.4258 10.2463 40.3562 9.78559 40.2436 9.28198C40.3374 9.21501 40.4124 9.17483 40.466 9.07035C40.6347 8.74354 40.4928 8.22386 40.2892 7.93991C40.1526 7.74704 40.0374 7.69346 39.8418 7.59167L39.8793 7.4363C39.9838 7.00769 39.8525 6.51748 39.5043 6.23353C39.14 5.9335 38.6873 5.98172 38.2881 6.19602L38.1917 6.22013C37.6613 6.22013 37.2675 6.63266 37.0371 7.07466C36.9996 7.14431 36.9675 7.21932 36.9354 7.29432L36.9487 6.46658C37.2461 6.09959 37.6506 5.82903 38.1408 5.81296C38.5399 5.61205 38.9123 5.57455 39.2337 5.65491C39.9945 5.84242 40.4178 6.63534 40.3053 7.3854C40.6535 7.63185 40.8705 8.06849 40.9294 8.4837C40.9776 8.81051 40.9348 9.19626 40.6964 9.44806C40.8866 10.3749 40.8196 11.433 40.1927 12.1885C39.6865 12.7965 38.9498 13.0349 38.1783 12.9358C37.4684 12.9305 36.8764 12.3653 36.5309 11.7411L36.8068 11.3875L36.8121 11.3795ZM37.0479 8.38191C37.4416 7.34522 37.3532 6.09155 36.8416 5.11112C36.4692 4.39588 35.8237 3.77709 34.9798 3.75298C34.3021 3.40474 33.536 3.38063 32.9306 3.8762C32.3814 4.32356 32.1377 5.06558 32.2528 5.75938C31.7948 6.06744 31.5162 6.62999 31.4385 7.16306C31.3769 7.57827 31.4331 8.07653 31.7439 8.38459C31.4948 9.57396 31.5671 10.9428 32.3761 11.9152C33.019 12.6894 33.9592 12.9894 34.9397 12.8635C35.9362 12.8581 36.7559 11.9554 37.1443 11.1143C37.5381 10.2651 37.6586 9.16411 37.0505 8.38459L37.0479 8.38191ZM37.0613 9.70522C37.0613 9.27394 36.9407 8.86677 36.6594 8.55335L36.5737 8.45691L36.6246 8.33905C37.0238 7.39344 36.9514 6.20406 36.48 5.29863C36.1719 4.70394 35.6388 4.16015 34.9289 4.16015L34.8325 4.13604C34.2941 3.84673 33.6806 3.79048 33.1877 4.1923C32.7216 4.57268 32.5395 5.23166 32.6815 5.81028L32.719 5.96565L32.577 6.04065C32.1618 6.25496 31.91 6.77196 31.8457 7.21932C31.8028 7.51666 31.8242 7.94795 32.0921 8.14082L32.202 8.22118C32.0546 8.86409 31.9743 9.46681 32.0627 10.1285C32.2662 11.65 33.3404 12.6653 34.9022 12.4563H34.9289C35.3147 12.4563 35.6951 12.2688 36.0272 11.9715C36.6327 11.4277 37.0639 10.5249 37.0639 9.7079L37.0613 9.70522ZM34.645 8.2319V14.0422H34.2351V8.2319H34.645ZM35.8987 9.00874L34.6048 10.3642L34.3075 10.0829L35.6013 8.72747L35.8987 9.00874ZM33.7556 8.73551L34.578 9.51235L34.2968 9.8097L33.4744 9.03285L33.7556 8.73551ZM33.3324 9.60611L34.6289 10.9616L34.3316 11.2428L33.0351 9.88738L33.3324 9.60611ZM38.9043 9.28198H38.548V14.3556H38.9043V9.28198ZM39.9999 9.95971L39.74 9.71326L38.6069 10.8973L38.8668 11.1437L39.9999 9.95971ZM38.0203 9.52843L37.7604 9.77487L38.5935 10.6535L38.8534 10.4071L38.0203 9.52843ZM37.9506 10.6642L37.6908 10.908L38.631 11.9125L38.8909 11.6688L37.9506 10.6642ZM40.0508 14.2859L40.2704 14.3851C40.3535 14.2029 40.3856 14.0207 40.3106 13.8252L40.0883 13.9136C40.1392 14.0422 40.107 14.1654 40.0535 14.2859H40.0508ZM40.5356 14.2779L40.8303 14.3904C40.9321 14.1225 40.9241 13.9779 40.8624 13.702L40.5544 13.7716C40.6026 13.9859 40.616 14.069 40.5356 14.2779ZM39.7293 14.3395L39.8874 14.2109C39.8445 14.16 39.8043 14.1011 39.8499 14.0368L39.6838 13.9216C39.5847 14.0663 39.6275 14.2109 39.7293 14.3368V14.3395ZM39.1078 14.3502L39.3275 14.2002C39.2552 14.0931 39.2632 14.069 39.3141 13.9511L39.0677 13.8493C38.9819 14.0529 38.9819 14.1681 39.1078 14.3529V14.3502ZM36.9407 14.2859L37.1604 14.3851C37.2434 14.2029 37.2756 14.0181 37.2006 13.8252L36.9782 13.9136C37.0291 14.0422 36.997 14.1654 36.9434 14.2859H36.9407ZM36.4532 14.3904L36.7478 14.2779C36.6675 14.069 36.6809 13.9886 36.7291 13.7716L36.421 13.702C36.3567 13.9779 36.3514 14.1225 36.4532 14.3904ZM37.4738 14.3395L37.6318 14.2136C37.5917 14.1627 37.5515 14.1038 37.5943 14.0395L37.4282 13.9243C37.3265 14.069 37.372 14.2136 37.4738 14.3395ZM37.9533 14.2002L38.1729 14.3502C38.2989 14.1654 38.2989 14.0529 38.2158 13.8493L37.9694 13.9484C38.0176 14.069 38.0283 14.0931 37.9533 14.2002ZM34.0101 14.0261L34.2298 14.1225C34.3102 13.9404 34.3423 13.7582 34.27 13.5653L34.0449 13.6511C34.0958 13.7823 34.0637 13.9029 34.0101 14.0261ZM33.5199 14.1306C33.4181 13.8627 33.4235 13.718 33.4878 13.4421L33.7958 13.5118C33.7476 13.7261 33.7342 13.8091 33.8146 14.0181L33.5199 14.1306ZM34.5432 14.0797L34.7013 13.9538C34.6611 13.9029 34.6182 13.8439 34.6637 13.7796L34.4977 13.6645C34.3959 13.8118 34.4414 13.9511 34.5459 14.0797H34.5432ZM35.0227 13.9404C35.095 13.8332 35.087 13.8091 35.0361 13.6912L35.2825 13.5895C35.3683 13.793 35.3683 13.9082 35.2424 14.0931L35.0227 13.9431V13.9404Z" fill="black"/>
<path fill-rule="evenodd" clip-rule="evenodd" d="M31.1278 18.4245C31.2377 18.4245 31.393 18.2853 31.5565 18.1406C31.8833 17.8486 32.2288 17.5379 32.711 17.7629C33.0887 17.9397 33.5441 18.0736 33.9566 18.1245C34.2995 18.1674 34.5995 18.154 34.7737 18.0549C35.0817 17.8834 35.4701 18.0254 35.9095 18.1835C36.4024 18.3629 36.9703 18.5692 37.3319 18.2397C38.4463 17.2218 39.2821 17.8647 39.8366 18.2933C39.9571 18.387 40.0616 18.4674 40.1339 18.4996L39.9491 18.9201C39.8285 18.8665 39.7026 18.7674 39.5553 18.6576C39.1213 18.3228 38.4704 17.8191 37.64 18.5799C37.0721 19.0969 36.3649 18.8398 35.7514 18.6174C35.4193 18.4969 35.1219 18.387 34.9987 18.4567C34.7308 18.6067 34.3317 18.6362 33.9004 18.5826C33.4423 18.5263 32.936 18.3763 32.5181 18.1808C32.3092 18.0843 32.0788 18.2879 31.8592 18.4835C31.6288 18.6897 31.4091 18.8853 31.1252 18.8853V18.4272L31.1278 18.4245Z" fill="black"/>
<path fill-rule="evenodd" clip-rule="evenodd" d="M16.9946 18.0924C17.6429 17.6557 17.9429 17.8272 18.3715 18.0736C18.4813 18.1379 18.6019 18.2076 18.7439 18.2665C19.2287 17.6209 19.818 17.9665 20.2333 18.2129C20.3243 18.2665 20.2761 18.4353 20.335 18.3737C21.1065 17.5727 21.6476 17.779 22.1379 17.9665C22.2584 18.012 22.3763 18.0576 22.4834 18.0736C22.8317 17.4307 23.2603 17.5298 23.721 17.6343C23.8657 17.6665 24.0184 17.7013 24.155 17.6959C24.4738 17.6825 24.8622 17.7147 25.2345 17.7924C25.5721 17.8647 25.8989 17.9745 26.1641 18.1245L25.9364 18.5237C25.7167 18.3978 25.4328 18.304 25.1381 18.2397C24.8032 18.1701 24.4577 18.1406 24.1764 18.1513C23.9782 18.1594 23.796 18.1192 23.6219 18.079C23.3219 18.0093 23.0433 17.945 22.837 18.3978L22.7808 18.521L22.6468 18.5317C22.4057 18.5531 22.1968 18.4728 21.9771 18.3897C21.6209 18.2531 21.2298 18.1031 20.6699 18.6871C20.4797 18.8853 20.2708 18.7621 20.0029 18.604C19.7189 18.4353 19.3064 18.1915 19.0358 18.6549L18.9421 18.8157L18.7653 18.7594C18.5028 18.6737 18.3126 18.5665 18.1438 18.4701C17.8599 18.3094 17.6616 18.1942 17.2518 18.4701L16.9946 18.0897V18.0924Z" fill="black"/>
<path fill-rule="evenodd" clip-rule="evenodd" d="M15.0068 16.9164C15.6444 16.5521 16.14 16.7343 16.6034 16.9057C16.7802 16.97 16.9516 17.0343 17.1043 17.0504C17.2034 17.0584 17.3615 16.9405 17.5142 16.8227C17.6401 16.7236 17.766 16.6271 17.9026 16.5682C18.2214 16.4316 18.5134 16.4825 18.7518 17.037C18.8214 17.2004 19.1697 17.0504 19.5393 16.8896C19.8233 16.7664 20.1179 16.6378 20.3939 16.6057C20.6778 16.5735 20.935 16.6995 21.1841 16.8227C21.3877 16.9245 21.5832 17.0182 21.669 16.9539C22.2047 16.5548 22.7485 16.3137 23.2977 16.2923C23.8575 16.2708 24.412 16.4771 24.9612 16.9754L24.6531 17.3156C24.2004 16.9057 23.7557 16.7343 23.3164 16.7503C22.8664 16.7664 22.4083 16.9754 21.9449 17.3209C21.6315 17.554 21.3154 17.3986 20.9805 17.2352C20.793 17.1414 20.5948 17.045 20.4448 17.0638C20.2331 17.0879 19.9706 17.2031 19.7188 17.3129C19.1295 17.5701 18.5777 17.8085 18.3258 17.2218C18.2321 17.0022 18.1517 16.9647 18.0794 16.9968C17.9964 17.0316 17.8946 17.112 17.7901 17.1897C17.5651 17.3611 17.3374 17.5379 17.0561 17.5111C16.8418 17.4897 16.6436 17.4174 16.44 17.3424C16.073 17.2057 15.6792 17.0611 15.2292 17.3209L15.0015 16.9218L15.0068 16.9164Z" fill="black"/>
<path fill-rule="evenodd" clip-rule="evenodd" d="M10.22 18.0658C10.378 18.0122 10.5253 17.9506 10.6727 17.8863C11.3638 17.5836 12.0576 17.2836 13.0407 18.0872C13.3166 18.2238 13.63 18.0604 13.9247 17.9024C14.1712 17.7711 14.4096 17.6452 14.6667 17.6425C15.0203 17.6372 15.2025 17.9024 15.382 18.1676C15.4489 18.2667 15.5186 18.3685 15.5882 18.4328C15.6954 18.5292 15.8588 18.5104 16.2178 18.1167L16.558 18.4274C15.9499 19.0971 15.5775 19.0462 15.2802 18.7756C15.173 18.6792 15.0873 18.5533 15.0043 18.4274C14.8944 18.264 14.7819 18.1006 14.6748 18.1033C14.5301 18.1033 14.3399 18.2051 14.139 18.3095C13.7318 18.5238 13.2979 18.7542 12.8023 18.481L12.7675 18.4569C11.9906 17.814 11.4227 18.0604 10.8575 18.3069C10.6914 18.3792 10.5253 18.4515 10.3646 18.5024L10.22 18.0658Z" fill="black"/>
<path fill-rule="evenodd" clip-rule="evenodd" d="M10.9511 16.7959C12.2289 15.9012 12.9709 16.1477 13.6433 16.5307C13.6058 16.145 13.646 15.8289 13.8067 15.6092C14.0398 15.2878 14.4737 15.194 15.189 15.4244C15.7194 15.2342 16.2015 15.1833 16.6543 15.2074C17.0775 15.2288 17.4713 15.3172 17.857 15.4137C18.3392 14.9985 18.808 14.8297 19.2607 14.8484C19.7054 14.8699 20.1233 15.0708 20.5197 15.4083L21.1359 15.2074C22.0118 14.385 22.8449 14.8217 23.6191 15.2288C23.8602 15.3547 24.0932 15.478 24.3075 15.5449C24.862 15.3494 25.3978 15.2262 25.8746 15.3253C26.3997 15.4351 26.8283 15.7941 27.0935 16.5789L27.1015 16.6057L27.4122 18.0817C27.8623 18.3523 28.2828 18.43 28.6873 18.4005C29.1133 18.3684 29.5285 18.2157 29.9437 18.0335L30.6696 17.187L30.7527 17.1254L32.0438 16.5682C32.3385 16.4021 32.6439 16.3834 32.9386 16.4771C33.2305 16.5736 33.5065 16.7852 33.7368 17.0825C33.7368 17.0799 33.7368 17.0772 33.7395 17.0772C33.7877 17.0611 33.8493 17.0236 33.9163 16.9727C34.1895 16.7611 34.5164 16.3539 34.7333 15.9923C34.886 15.7351 35.111 15.7512 35.3762 15.9092C35.545 16.011 35.7325 16.1744 35.9281 16.3486C36.2576 16.6432 36.6192 16.9647 36.7585 16.9031L36.946 17.321C36.5388 17.5058 36.0593 17.0799 35.6227 16.6914C35.4405 16.5307 35.2691 16.378 35.1405 16.3003C35.1137 16.2843 35.1485 16.1878 35.1271 16.2253C34.886 16.6272 34.5137 17.0906 34.1949 17.3343C34.0878 17.4174 33.9833 17.479 33.8842 17.5112C33.7475 17.5567 33.619 17.5513 33.5038 17.4817C33.4609 17.4576 33.4207 17.4201 33.3886 17.3772C33.2118 17.1442 33.0082 16.9808 32.7993 16.9111C32.6225 16.8522 32.4376 16.8682 32.2608 16.97L32.2367 16.9834L30.9857 17.5245L30.2625 18.3684L30.1794 18.43C29.7079 18.6389 29.2311 18.8184 28.7248 18.8586C28.2052 18.8988 27.664 18.7889 27.0881 18.4193L27.0077 18.3657L26.6622 16.7156C26.4586 16.1182 26.1532 15.8503 25.7889 15.7753C25.3951 15.6949 24.9129 15.8182 24.4013 16.003L24.3343 16.0271L24.2647 16.0084C23.9807 15.9333 23.7021 15.786 23.4128 15.636C22.7699 15.2985 22.0761 14.9342 21.4252 15.5744L21.3341 15.6306L20.4153 15.928L20.3161 15.8396C19.9652 15.5208 19.6089 15.3279 19.2446 15.3119C18.883 15.2958 18.4946 15.4538 18.0767 15.8396L17.9856 15.9253L17.8651 15.8932C17.4632 15.7887 17.0588 15.6923 16.6355 15.6708C16.2203 15.6494 15.7756 15.7003 15.2774 15.8878L15.1997 15.9173L15.122 15.8905C14.5862 15.7057 14.2996 15.7244 14.1817 15.8851C14.0478 16.07 14.0692 16.4504 14.1791 16.9379L14.2969 17.4576L13.6862 17.0933C13.0593 16.7129 12.4298 16.3298 11.219 17.1763L10.9565 16.8013L10.9511 16.7959Z" fill="black"/>
<path d="M28.2882 12.2661H27.8703V16.6325H28.2882V12.2661Z" fill="black"/>
<path fill-rule="evenodd" clip-rule="evenodd" d="M27.139 12.5715L28.2882 13.6993L28.023 13.9324L26.8765 12.8073L27.139 12.5715Z" fill="black"/>
<path fill-rule="evenodd" clip-rule="evenodd" d="M29.2177 12.3627L28.1622 13.5467L27.9185 13.3002L28.9766 12.1162L29.2177 12.3627Z" fill="black"/>
<path fill-rule="evenodd" clip-rule="evenodd" d="M29.1668 13.4046L28.1409 14.6904L27.9051 14.4225L28.9311 13.1367L29.1668 13.4046Z" fill="black"/>
<path fill-rule="evenodd" clip-rule="evenodd" d="M31.2884 12.2823C31.3045 12.3064 31.3179 12.3278 31.3313 12.3546C31.425 12.5341 31.4518 12.7538 31.417 12.9707C31.3822 13.185 31.2831 13.3993 31.1197 13.5735C31.0607 13.6378 30.9938 13.6967 30.9161 13.7476C30.9375 13.8413 30.9375 13.9351 30.9214 14.0289C30.892 14.1896 30.8089 14.345 30.691 14.4762C30.5785 14.6048 30.4339 14.7119 30.2732 14.787C30.1124 14.862 29.9356 14.9048 29.7615 14.8968C29.6436 15.1486 29.4374 15.3682 29.1534 15.4995C28.8427 15.6415 28.4409 15.6736 27.9694 15.5129L27.9507 15.5075C27.0667 15.4995 26.2657 15.1379 25.6844 14.5566C25.1165 13.9887 24.7576 13.2118 24.7361 12.3493C24.5272 12.2019 24.3986 11.9689 24.3477 11.7037C24.3048 11.4787 24.3182 11.2322 24.3852 10.9992C24.4522 10.7634 24.5754 10.5384 24.7522 10.3616C24.9638 10.15 25.2478 10.0053 25.6014 9.98926C25.6576 9.73209 25.7728 9.51511 25.9282 9.33563C26.1184 9.11597 26.3621 8.9606 26.6247 8.86685C26.8845 8.77309 27.1658 8.74362 27.4229 8.77845C27.6319 8.80524 27.8274 8.87488 27.9908 8.98739C28.3552 8.78113 28.7114 8.70076 29.0382 8.71684C29.3142 8.73023 29.566 8.81059 29.7829 8.93917C29.9999 9.06776 30.1794 9.24723 30.3107 9.45618C30.4473 9.67584 30.5303 9.93032 30.541 10.1982C30.9455 10.292 31.2134 10.5143 31.3741 10.7849C31.4599 10.9268 31.5134 11.0822 31.5402 11.2402C31.567 11.3956 31.567 11.551 31.5456 11.6983C31.5108 11.9314 31.4197 12.143 31.2857 12.285L31.2884 12.2823ZM30.9402 12.4886C30.9161 12.4457 30.8866 12.4055 30.8518 12.3707L30.7018 12.2314L30.8786 12.1269C31.0018 12.0546 31.0875 11.8805 31.1197 11.6715C31.1357 11.5617 31.1357 11.4438 31.1143 11.326C31.0929 11.2108 31.0554 11.0956 30.9937 10.9911C30.8652 10.7741 30.6375 10.6 30.2785 10.5464L30.1392 10.525L30.1446 10.3857C30.1553 10.1419 30.091 9.90889 29.9678 9.71066C29.8687 9.54994 29.7294 9.41064 29.5633 9.31152C29.3972 9.21241 29.2016 9.1508 28.99 9.14008C28.7061 9.12669 28.39 9.20705 28.0632 9.41064L27.9667 9.46957L27.881 9.39457C27.7551 9.28474 27.589 9.22045 27.4042 9.19634C27.2033 9.16955 26.9836 9.19634 26.7747 9.26866C26.5684 9.34099 26.3782 9.46422 26.2309 9.63298C26.0943 9.79103 25.9978 9.99193 25.9657 10.2357L25.9469 10.375L25.805 10.367C25.4969 10.3509 25.2531 10.4634 25.0817 10.6375C24.9504 10.7715 24.8567 10.9402 24.8058 11.1197C24.7549 11.3019 24.7442 11.4894 24.7763 11.6581C24.8138 11.859 24.9156 12.0305 25.0763 12.1189L25.1567 12.1617V12.2528C25.1567 13.0324 25.4728 13.7395 25.9844 14.2485C26.4961 14.7602 27.2006 15.0763 27.9801 15.0763L28.031 15.0843L28.0712 15.0977C28.4436 15.2263 28.7516 15.2048 28.9847 15.0977C29.2124 14.9932 29.3704 14.8084 29.4481 14.5994L29.499 14.4575L29.6276 14.4816C29.7695 14.5084 29.9222 14.4789 30.0642 14.4119C30.1794 14.3583 30.2839 14.278 30.3669 14.1869C30.4446 14.0985 30.4982 13.9994 30.5169 13.903C30.5303 13.8306 30.5223 13.7556 30.4901 13.6833L30.4285 13.5494L30.5598 13.4824C30.6482 13.4368 30.7232 13.3779 30.7875 13.3109C30.9027 13.1877 30.9723 13.0377 30.9964 12.8877C31.0205 12.743 31.0045 12.5984 30.9455 12.4859L30.9402 12.4886Z" fill="black"/>
</svg>
