<svg width="155" height="155" viewBox="0 0 155 155" fill="none" xmlns="http://www.w3.org/2000/svg">
<g clip-path="url(#clip0_4479_15097)">
<mask id="mask0_4479_15097" style="mask-type:luminance" maskUnits="userSpaceOnUse" x="-4" y="-8" width="163" height="164">
<path d="M159 -7.5H-4V155.5H159V-7.5Z" fill="white"/>
</mask>
<g mask="url(#mask0_4479_15097)">
<path d="M114.097 137.942C114.249 135.767 103.157 133.053 99.268 122.453C95.2457 111.52 95.2077 92.2026 79.9754 79.5473C66.677 68.4868 50.6957 65.7697 50.5076 65.4501C50.3209 65.1316 48.6164 60.2675 50.7056 54.6693C52.0715 51.0388 56.5591 47.3723 56.9252 45.6797C57.2913 43.9871 55.2284 40.9167 51.507 40.0379C47.7868 39.159 44.6543 41.4761 43.9088 43.3719C43.1634 45.269 44.8673 50.5008 43.7438 55.5297C42.6203 60.5586 39.8576 64.7058 37.4523 66.3547C33.9002 68.7682 16.9174 83.0576 18.6046 104.407C20.2919 125.756 42.2304 142.48 68.9318 147.183C94.3603 151.658 113.948 140.096 114.097 137.942Z" fill="#8AC12C"/>
<path d="M75.1698 119.025C68.3671 113.667 63.4484 106.804 57.035 95.7757C53.7091 90.1263 51.6239 77.9261 48.1315 79.0813C44.6369 80.2394 44.5361 90.0706 50.6036 101.851C56.6965 113.682 64.8908 120.952 72.3646 125.441C79.9687 130.005 88.955 131.972 89.5178 129.524C90.1371 127.543 80.4196 123.433 75.1698 119.025Z" fill="#589623"/>
<mask id="mask1_4479_15097" style="mask-type:alpha" maskUnits="userSpaceOnUse" x="18" y="39" width="97" height="110">
<path d="M114.1 137.942C114.253 135.767 103.161 133.053 99.2719 122.453C95.2496 111.52 95.2116 92.2026 79.9793 79.5473C66.6809 68.4868 50.6996 65.7697 50.5115 65.4501C50.3248 65.1316 48.6203 60.2675 50.7095 54.6693C52.0754 51.0388 56.563 47.3723 56.9291 45.6797C57.2952 43.9871 55.2323 40.9167 51.5109 40.0379C47.7907 39.159 44.6582 41.4761 43.9127 43.3719C43.1673 45.269 44.8712 50.5008 43.7477 55.5297C42.6242 60.5586 39.8615 64.7058 37.4563 66.3547C33.9041 68.7682 16.9213 83.0576 18.6085 104.407C20.2958 125.756 42.2343 142.48 68.9357 147.183C94.3642 151.658 113.952 140.096 114.1 137.942Z" fill="#8AC12C"/>
<path d="M75.1738 119.025C68.371 113.667 63.4523 106.804 57.0389 95.7757C53.713 90.1263 51.6278 77.9261 48.1354 79.0813C44.6408 80.2394 44.5401 90.0706 50.6075 101.851C56.7004 113.682 64.8947 120.952 72.3685 125.441C79.9726 130.005 88.9589 131.972 89.5217 129.524C90.141 127.543 80.4235 123.433 75.1738 119.025Z" fill="#589623"/>
</mask>
<g mask="url(#mask1_4479_15097)">
<path d="M14.5971 126.589C24.1985 144.299 54.8223 158.677 69.2119 161.546C93.3179 166.352 108.11 152.5 108.11 152.5C108.11 152.5 83.4506 155.402 64.9436 148.848C34.1056 137.812 38.2025 118.482 31.1989 105.328C24.3183 92.6854 22.5077 87.0492 30.9304 74.8557C40.8027 60.709 37.2338 41.7849 45.0434 30.6006C49.6642 23.7081 32.0528 25.9155 32.8371 24.9829C18.5055 41.1066 -6.69203 87.0463 14.5971 126.589Z" fill="#599724"/>
</g>
<path d="M138.15 56.329C138.15 56.329 130.472 48.6248 118.354 44.8802C109.684 42.1758 99.79 42.8675 93.0888 45.1879C87.0998 47.2513 84.3643 49.1432 81.8945 51.5018C79.5374 53.7262 76.8031 56.0992 78.2148 57.5993C79.1209 58.5068 81.5924 56.0216 83.8039 54.7235C86.6366 53.1418 90.5691 51.4285 94.9173 50.5574C101.004 49.4439 108.151 50.393 115.127 52.9449C123.491 55.9794 126.771 59.8874 128.928 62.2238C131.079 64.557 138.15 56.329 138.15 56.329Z" fill="#B0E3FD"/>
<path d="M137.817 56.0916C141.581 58.846 148.015 67.5593 145.051 79.3173C140.897 95.8413 104.708 89.1318 94.5494 86.4353C84.3905 83.7388 42.0455 71.1951 41.5278 37.7642C40.9733 2.01839 93.6801 2.13129 93.6229 4.26907C93.5845 9.89428 63.447 10.6298 59.7995 28.4738C56.4746 44.6261 67.9886 55.5372 79.7547 59.9684C142.176 85.1671 133.2 66.2135 128.729 62.0191C124.63 58.1332 127.194 48.083 137.817 56.0916Z" fill="url(#paint0_radial_4479_15097)"/>
</g>
</g>
<defs>
<radialGradient id="paint0_radial_4479_15097" cx="0" cy="0" r="1" gradientUnits="userSpaceOnUse" gradientTransform="translate(34.9825 44.7867) scale(97.8781 97.8781)">
<stop offset="0.36" stop-color="#D9F3FB"/>
<stop offset="0.76" stop-color="#C5ECFC"/>
<stop offset="1" stop-color="#B1E4FE"/>
</radialGradient>
<clipPath id="clip0_4479_15097">
<rect width="155" height="155" fill="white"/>
</clipPath>
</defs>
</svg>
